<svg width="80" height="80" viewBox="0 0 80 80" fill="none" xmlns="http://www.w3.org/2000/svg">
<path d="M48.3823 29.5651L45.4992 29.1453C45.4108 29.1453 45.3224 29.1453 45.3224 29.2334L44.1018 30.7994C44.0322 30.9016 44.0009 31.025 44.0134 31.1479C44.0134 31.2361 43.9251 31.4124 43.8409 31.3242L42.877 31.0639C42.7045 31.0639 42.5277 31.0639 42.4562 31.2361L38.525 36.2741C38.4366 36.3623 38.3482 36.3623 38.1757 36.3623L36.6899 35.6653C36.6269 35.6258 36.5539 35.6049 36.4795 35.6049C36.405 35.6049 36.3321 35.6258 36.269 35.6653L35.4441 36.1943C35.3814 36.2348 35.3083 36.2564 35.2336 36.2564C35.159 36.2564 35.0859 36.2348 35.0232 36.1943L34.6739 36.0222C34.617 35.9966 34.5554 35.983 34.493 35.9824C34.4306 35.9817 34.3687 35.994 34.3113 36.0185C34.2539 36.043 34.2023 36.0791 34.1596 36.1245C34.117 36.17 34.0843 36.2238 34.0636 36.2825L33.7984 37.5C33.7669 37.6293 33.7754 37.7651 33.8227 37.8895C33.87 38.0139 33.954 38.1211 34.0636 38.197L34.7622 38.6168L36.5931 39.7504L37.4686 40.271C37.5915 40.3429 37.7343 40.3736 37.876 40.3585C38.0177 40.3434 38.1508 40.2833 38.2556 40.187L39.7372 38.8771C39.8648 38.8046 40.0124 38.7752 40.1581 38.7931L40.579 39.0534C40.7515 39.1416 40.9283 39.1416 40.9999 38.9653L41.7827 38.2683C41.8366 38.2143 41.9051 38.1771 41.9799 38.1614C42.0547 38.1458 42.1325 38.1523 42.2036 38.1802L43.34 38.705C43.4277 38.7336 43.521 38.7406 43.6119 38.7252C43.7028 38.7098 43.7886 38.6726 43.8619 38.6168L44.388 37.9199L48.3192 32.8818C48.4917 32.6173 48.4034 32.2689 48.054 32.2689L47.2291 32.0841C47.0523 32.0841 46.9681 31.8238 47.0523 31.6643L48.4497 30.0101C48.6433 29.8338 48.5549 29.5651 48.3823 29.5651Z" fill="white"/>
<path d="M35.28 39.7672C35.1917 39.6791 35.1075 39.7672 35.1075 39.8554L35.5284 40.9848V41.2493L35.179 42.7271C35.173 42.775 35.1779 42.8236 35.1932 42.8693C35.2085 42.9151 35.2338 42.9569 35.2674 42.9916L36.3154 43.7725C36.3638 43.8147 36.4258 43.838 36.4901 43.838C36.5544 43.838 36.6164 43.8147 36.6648 43.7725L37.8012 42.8153C37.8352 42.7818 37.8763 42.7565 37.9215 42.7413C37.9667 42.726 38.0148 42.7212 38.0621 42.7271L39.2869 42.555C39.3711 42.555 39.3711 42.4668 39.2869 42.3786L35.28 39.7672Z" fill="white"/>
<path d="M34.9305 43.5121C34.9157 43.4913 34.8962 43.4743 34.8735 43.4626C34.8508 43.4509 34.8256 43.4448 34.8 43.4448C34.7745 43.4448 34.7493 43.4509 34.7266 43.4626C34.7039 43.4743 34.6843 43.4913 34.6696 43.5121L33.7941 43.9319C33.7827 43.9319 33.7714 43.9342 33.7609 43.9387C33.7504 43.9432 33.7409 43.9497 33.7331 43.958C33.7252 43.9662 33.7191 43.976 33.7151 43.9867C33.7111 43.9974 33.7094 44.0087 33.7099 44.0201L31.7865 48.7223H31.8748L32.2957 48.5501V48.6341L30.8984 50.9012C30.8984 50.9894 30.8984 50.9894 30.9825 50.9894L35.8733 46.0227C35.9617 46.0227 35.9617 45.9346 35.9617 45.8464L36.0501 44.5407C36.0501 44.4525 36.0501 44.3686 35.9617 44.3686L34.9305 43.5121Z" fill="white"/>
<path d="M29.9977 80.0001L28.0616 76.3853L31.4287 74.0552L32.0769 74.9578L31.012 75.6757C30.8301 75.8062 30.6404 75.9254 30.4438 76.0326C30.2662 76.1334 30.0803 76.2191 29.8883 76.2887L33.5079 77.162L33.2596 78.1864L29.6315 77.3089C29.7268 77.4065 29.8154 77.5102 29.8967 77.6196C29.9767 77.7246 30.0524 77.8379 30.1282 77.9597L30.3597 78.3795L30.9742 79.5047L29.9977 80.0001Z" fill="#FFCD1E"/>
<path d="M14.1385 66.1876C14.7152 65.5284 15.6327 65.4613 16.4534 66.1876L18.137 67.6612L14.7699 71.4943L13.4314 70.2894C12.556 69.5253 12.2361 68.7234 12.8506 68.0181C12.983 67.8524 13.1613 67.729 13.3633 67.6634C13.5652 67.5977 13.7821 67.5926 13.987 67.6486C13.8359 67.4262 13.7683 67.1578 13.796 66.8906C13.8237 66.6233 13.945 66.3744 14.1385 66.1876ZM15.3423 69.3867L14.6604 68.7948C14.2395 68.4211 13.8776 68.3162 13.6587 68.5681C13.4398 68.82 13.5914 69.1516 14.0249 69.5253L14.7025 70.1173L15.3423 69.3867ZM14.7951 66.9013C14.4963 67.2456 14.6562 67.6654 15.1276 68.0768L15.9021 68.7486L16.7817 67.7452L16.0073 67.0734C15.5359 66.662 15.0982 66.5528 14.7951 66.9013Z" fill="white"/>
<path d="M6.55402 62.6861L8.87735 60.9228C9.94642 60.1083 11.1712 60.1251 11.9583 61.1537C12.7454 62.1823 12.4339 63.3663 11.3648 64.1766L9.04149 65.9399L8.45646 65.1758L10.8724 63.3369C11.0028 63.2577 11.1151 63.1521 11.202 63.0269C11.2889 62.9016 11.3485 62.7596 11.3768 62.61C11.4052 62.4603 11.4017 62.3064 11.3666 62.1582C11.3315 62.0099 11.2656 61.8707 11.1732 61.7495C11.0807 61.6283 10.9637 61.5278 10.8299 61.4546C10.696 61.3814 10.5482 61.337 10.396 61.3244C10.2439 61.3117 10.0908 61.3311 9.94661 61.3813C9.80245 61.4315 9.67046 61.5113 9.55919 61.6156L7.13906 63.4502L6.55402 62.6861Z" fill="white"/>
<path d="M8.94895 56.7536L4.43698 59.1257L3.98663 58.286L8.50701 55.9014L8.94895 56.7536Z" fill="white"/>
<path d="M5.17342 50.2587L6.09098 49.9438L7.07586 52.7861L2.24823 54.4655L1.93256 53.5545L5.83844 52.211L5.17342 50.2587Z" fill="white"/>
<path d="M2.19362 42.9538C3.59098 42.7606 4.84945 43.5625 5.08094 45.2377L5.31244 46.917L0.261726 47.6098L0.0344403 45.9304C-0.201259 44.2091 0.800467 43.1427 2.19362 42.9538ZM2.3241 43.9068C2.11939 43.9251 1.92061 43.985 1.73997 44.0828C1.55934 44.1806 1.40066 44.3142 1.27371 44.4755C1.14677 44.6367 1.05424 44.8221 1.00181 45.0203C0.949373 45.2186 0.938147 45.4254 0.968822 45.6281L1.08667 46.5098L4.21811 46.0899L4.09605 45.2125C4.07113 45.0091 4.005 44.8129 3.9017 44.6358C3.79839 44.4587 3.66006 44.3044 3.49511 44.1822C3.33017 44.0601 3.14204 43.9727 2.94218 43.9254C2.74232 43.878 2.53489 43.8717 2.33251 43.9068H2.3241Z" fill="white"/>
<path d="M0.737321 30.4045L1.69274 30.5935L1.43179 31.895L5.48499 32.7011L5.29558 33.6457L1.24238 32.8396L0.981433 34.1369L0.0302124 33.948L0.737321 30.4045Z" fill="white"/>
<path d="M3.52353 22.6841L8.2291 24.6531L7.85452 25.5432L5.94787 24.7455L5.10609 26.7439L7.01273 27.5416L6.63813 28.4275L1.93256 26.4584L2.30714 25.5684L4.20959 26.3661L5.05137 24.3676L3.14893 23.5699L3.52353 22.6841Z" fill="white"/>
<path d="M7.00019 18.6493L7.90511 19.2622L8.91946 17.7676L9.72336 18.3092L8.70901 19.8038L9.61393 20.4168L10.8345 18.6241L11.6384 19.1657L9.87488 21.7561L5.66595 18.9012L7.42528 16.3108L8.22919 16.8566L7.00019 18.6493Z" fill="white"/>
<path d="M17.1732 13.3047L14.0502 9.27847L16.5335 7.36401L17.127 8.12812L15.4097 9.4548L16.0831 10.3197L17.5142 9.2113L18.1118 9.9796L16.6724 11.0922L17.9351 12.7211L17.1732 13.3047Z" fill="white"/>
<path d="M23.5707 3.36694L24.8797 5.96574C25.4816 7.16227 25.2417 8.35881 24.0842 8.94238C22.9267 9.52596 21.8156 9.00116 21.2137 7.80043L19.9047 5.21423L20.7676 4.79439L22.1312 7.49815C22.1965 7.62578 22.2863 7.73935 22.3955 7.83237C22.5047 7.9254 22.6312 7.99605 22.7678 8.0403C22.9044 8.08454 23.0484 8.10152 23.1916 8.09026C23.3348 8.079 23.4743 8.03972 23.6023 7.97466C23.7302 7.9096 23.8441 7.82004 23.9373 7.71109C24.0306 7.60214 24.1014 7.47594 24.1458 7.33968C24.1901 7.20343 24.2072 7.05979 24.1959 6.91698C24.1846 6.77416 24.1452 6.63496 24.08 6.50733L22.7163 3.79938L23.5707 3.36694Z" fill="white"/>
<path d="M30.8143 0.990967L31.071 1.92301L29.8084 2.27567L30.9069 6.25153L29.9725 6.50343L28.8782 2.53177L27.6155 2.88443L27.3546 1.9482L30.8143 0.990967Z" fill="white"/>
<path d="M38.8619 0L39.0723 2.90108C39.1691 4.23616 38.4831 5.24797 37.1909 5.34033C35.8988 5.4327 35.0865 4.53005 34.9813 3.19076L34.7708 0.293885L35.7347 0.222513L35.9493 3.24534C35.942 3.39945 35.9675 3.55335 36.0242 3.69689C36.0809 3.84044 36.1675 3.97036 36.2782 4.07811C36.3889 4.18586 36.5212 4.26897 36.6664 4.32198C36.8117 4.37498 36.9666 4.39667 37.1208 4.38562C37.2751 4.37456 37.4253 4.33101 37.5614 4.25784C37.6976 4.18467 37.8167 4.08353 37.9108 3.96111C38.0049 3.83869 38.0719 3.69775 38.1075 3.5476C38.143 3.39745 38.1462 3.24149 38.1169 3.09L37.898 0.0671739L38.8619 0Z" fill="white"/>
<path d="M45.1247 5.52958L44.2114 3.69909L43.6347 3.62772L43.4201 5.30707L42.4604 5.18112L43.1128 0.143066L44.91 0.373978C46.219 0.541913 46.7325 1.32701 46.5936 2.30523C46.5531 2.66166 46.3993 2.9958 46.1547 3.25871C45.9101 3.52162 45.5875 3.69949 45.2341 3.76627L46.2779 5.68492L45.1247 5.52958ZM43.761 2.66629L44.7206 2.78804C44.8222 2.81006 44.9271 2.81158 45.0292 2.79253C45.1313 2.77348 45.2286 2.73424 45.3152 2.67712C45.4019 2.62 45.4763 2.54615 45.5339 2.45993C45.5915 2.37371 45.6313 2.27686 45.6508 2.17508C45.664 2.06983 45.6545 1.96299 45.623 1.86167C45.5916 1.76035 45.5389 1.66687 45.4684 1.58745C45.3979 1.50802 45.3113 1.44446 45.2143 1.40101C45.1173 1.35755 45.0122 1.33519 44.9058 1.3354L43.9462 1.21365L43.761 2.66629Z" fill="white"/>
<path d="M51.4928 2.79619L51.1519 3.83319L52.8691 4.39997L52.5661 5.31941L50.8488 4.75263L50.5079 5.78963L52.5703 6.46977L52.2799 7.38921L49.3041 6.40679L50.8993 1.57446L53.8792 2.55268L53.5762 3.47633L51.4928 2.79619Z" fill="white"/>
<path d="M65.0329 7.64136L65.3106 11.7306L61.2659 12.4695L61.047 11.3737L62.3097 11.1554C62.5412 11.1134 62.7642 11.0798 62.9747 11.063C63.1778 11.0462 63.3819 11.0462 63.585 11.063L60.6387 8.77912L61.2869 7.93944L64.2332 10.2234C64.1856 10.0962 64.1476 9.96569 64.1195 9.83291C64.0873 9.6947 64.0648 9.55441 64.0522 9.41307C64.0522 9.27453 64.0185 9.11499 64.0059 8.94705L63.9091 7.68754L65.0329 7.64136Z" fill="#FFCD1E"/>
<path d="M71.8935 26.1558L72.9541 24.4092L72.71 23.8845L71.1695 24.5982L70.7487 23.7249L75.3785 21.5837L76.1445 23.2211C76.7001 24.4134 76.3086 25.2657 75.4164 25.6814C75.0922 25.8375 74.7264 25.8858 74.3726 25.8193C74.0188 25.7529 73.6958 25.575 73.4508 25.3119L72.3817 27.218L71.8935 26.1558ZM73.5771 23.4772L73.9979 24.3505C74.0334 24.4482 74.0882 24.5378 74.159 24.6139C74.2298 24.6901 74.3153 24.7514 74.4102 24.7941C74.5052 24.8367 74.6078 24.86 74.712 24.8624C74.8161 24.8648 74.9196 24.8463 75.0165 24.8081C75.1114 24.7624 75.1955 24.6971 75.2633 24.6165C75.331 24.536 75.3809 24.442 75.4095 24.3408C75.4382 24.2396 75.445 24.1335 75.4295 24.0295C75.414 23.9255 75.3765 23.826 75.3195 23.7375L74.8987 22.8642L73.5771 23.4772Z" fill="white"/>
<path d="M76.9651 34.2757C76.453 34.3877 75.9191 34.346 75.4307 34.1559C74.9423 33.9657 74.5213 33.6357 74.2206 33.2073C73.92 32.7789 73.7531 32.2713 73.7412 31.7485C73.7292 31.2256 73.8726 30.711 74.1534 30.2694C74.4341 29.8277 74.8396 29.4788 75.3188 29.2666C75.798 29.0545 76.3294 28.9885 76.8461 29.0771C77.3628 29.1656 77.8416 29.4048 78.2223 29.7643C78.603 30.1239 78.8685 30.5877 78.9853 31.0975C79.1397 31.7862 79.0136 32.5079 78.6348 33.1038C78.256 33.6998 77.6554 34.1213 76.9651 34.2757V34.2757ZM76.7504 33.3353C77.0735 33.2582 77.3666 33.0875 77.5926 32.8446C77.8187 32.6017 77.9676 32.2976 78.0208 31.9704C78.0739 31.6433 78.0287 31.3078 77.8911 31.0061C77.7534 30.7045 77.5294 30.4503 77.2471 30.2754C76.9649 30.1006 76.6371 30.0129 76.305 30.0235C75.973 30.0341 75.6514 30.1424 75.381 30.3349C75.1105 30.5274 74.9032 30.7954 74.7852 31.1052C74.6671 31.415 74.6435 31.7527 74.7175 32.0758C74.7661 32.2929 74.8575 32.4983 74.9863 32.68C75.1152 32.8616 75.2789 33.0159 75.4681 33.1339C75.6572 33.2518 75.868 33.3311 76.0881 33.3672C76.3083 33.4032 76.5334 33.3952 76.7504 33.3437V33.3353Z" fill="white"/>
<path d="M76.1697 41.6185L75.2942 42.0006C74.8943 41.5503 74.6676 40.973 74.6544 40.3716C74.6489 40.0215 74.7126 39.6738 74.8418 39.3482C74.971 39.0226 75.1632 38.7257 75.4075 38.4742C75.6518 38.2227 75.9433 38.0217 76.2654 37.8827C76.5876 37.7436 76.934 37.6692 77.285 37.6637C77.636 37.6581 77.9846 37.7216 78.311 37.8505C78.6374 37.9794 78.9351 38.1712 79.1872 38.4148C79.4393 38.6585 79.6408 38.9493 79.7802 39.2706C79.9197 39.592 79.9942 39.9375 79.9998 40.2876C80.0089 40.8877 79.8029 41.4714 79.4189 41.9334L78.5309 41.5807C78.8566 41.2428 79.0351 40.79 79.0275 40.3212C79.0111 40.0491 78.9284 39.785 78.7867 39.5518C78.645 39.3186 78.4485 39.1234 78.2142 38.9829C77.9799 38.8424 77.7149 38.761 77.4419 38.7456C77.169 38.7302 76.8965 38.7814 76.6478 38.8946C76.3991 39.0079 76.1818 39.1798 76.0147 39.3956C75.8476 39.6114 75.7357 39.8645 75.6886 40.1331C75.6415 40.4017 75.6607 40.6777 75.7445 40.9372C75.8283 41.1968 75.9743 41.432 76.1697 41.6227V41.6185Z" fill="white"/>
<path d="M73.6653 49.0833L73.9052 47.8868L76.4642 46.4467L74.2756 46.0269L74.465 45.0823L79.4694 46.0689L79.28 47.0135L77.2092 46.5937L78.9349 48.76L78.695 49.9524L76.7252 47.3578L73.6653 49.0833Z" fill="white"/>
<path d="M76.2115 54.3355L75.1972 53.9157L74.5111 55.595L73.6146 55.2298L74.2965 53.5504L73.2863 53.1306L72.4445 55.1332L71.5438 54.768L72.7265 51.8711L77.4532 53.7939L76.2662 56.6908L75.3697 56.3256L76.2115 54.3355Z" fill="white"/>
<path d="M72.4826 63.2697L71.6829 62.7323L72.4027 61.6197L68.9303 59.3862L69.4522 58.5801L72.9246 60.8136L73.6485 59.701L74.465 60.2258L72.4826 63.2697Z" fill="white"/>
<path d="M64.6792 66.7963C64.0184 66.1666 63.9763 65.1632 64.9064 64.1975C65.1666 63.9148 65.4827 63.689 65.8348 63.5344C66.1869 63.3797 66.5673 63.2996 66.952 63.2991L67.2298 64.2353C66.9278 64.2267 66.6272 64.2796 66.3465 64.3908C66.0657 64.5019 65.8106 64.669 65.5967 64.8819C65.1337 65.3647 65.0453 65.8139 65.3021 66.0616C65.5588 66.3093 65.9418 66.1708 66.4722 65.7635C67.6296 64.8777 68.362 64.8986 68.9175 65.4318C69.4731 65.965 69.5952 67.0272 68.7197 67.9509C68.2863 68.4162 67.7019 68.7136 67.0698 68.7905L66.75 67.9215C67.2305 67.8612 67.676 67.639 68.0126 67.2917C68.3704 66.9223 68.5766 66.4982 68.282 66.2127C67.9874 65.9272 67.7348 66.0952 67.1372 66.536C66.2575 67.17 65.4662 67.552 64.6792 66.7963Z" fill="white"/>
<path d="M62.8022 71.6577L62.1708 70.7677L60.6935 71.8089L60.1337 71.0196L61.611 69.9784L60.9797 69.0883L59.2035 70.3478L58.6437 69.5543L61.207 67.749L64.1532 71.9012L61.59 73.7107L61.0302 72.9172L62.8022 71.6577Z" fill="white"/>
<path d="M53.3531 73.3415L55.3103 72.4725L55.2597 71.4355L56.253 71.0156L56.4088 76.5197L55.6091 76.8724L51.6232 73.0644L52.6123 72.6446L53.3531 73.3415ZM54.0855 74.0762L55.466 75.4533L55.365 73.5095L54.0855 74.0762Z" fill="white"/>
<path d="M47.2964 79.4333L47.0692 78.4886L48.3613 78.1822L47.4059 74.1727L48.3445 73.9502L49.2999 77.9596L50.592 77.6532L50.8193 78.5936L47.2964 79.4333Z" fill="white"/>
</svg>
