<svg width="18" height="16" viewBox="0 0 18 16" fill="none" xmlns="http://www.w3.org/2000/svg">
<g clip-path="url(#clip0_61385_196)">
<path d="M8.62637 0.166504C3.86294 0.166504 0 3.7625 0 8.1985C0 11.7465 2.47176 14.7565 5.90118 15.8195C6.33255 15.8935 6.49 15.6455 6.49 15.4325C6.49 15.2415 6.48245 14.7365 6.47814 14.0665C4.07863 14.5515 3.57176 12.9895 3.57176 12.9895C3.18029 12.0615 2.61412 11.8145 2.61412 11.8145C1.8301 11.3165 2.67235 11.3265 2.67235 11.3265C3.53833 11.3835 3.99343 12.1545 3.99343 12.1545C4.76343 13.3815 6.01333 13.0275 6.5051 12.8215C6.58275 12.3025 6.80598 11.9485 7.05294 11.7475C5.13765 11.5445 3.12314 10.8555 3.12314 7.7785C3.12314 6.9015 3.45961 6.1845 4.01176 5.6225C3.92225 5.4195 3.62676 4.6025 4.09588 3.4975C4.09588 3.4975 4.82059 3.2815 6.46843 4.3205C7.15647 4.1425 7.89412 4.0535 8.62853 4.0505C9.36078 4.0545 10.0995 4.1425 10.7886 4.3215C12.4354 3.2825 13.159 3.4985 13.159 3.4985C13.6292 4.6045 13.3337 5.4205 13.2453 5.6235C13.7985 6.1855 14.1318 6.9025 14.1318 7.7795C14.1318 10.8645 12.1151 11.5435 10.1933 11.7425C10.5028 11.9905 10.7789 12.4805 10.7789 13.2295C10.7789 14.3035 10.7681 15.1695 10.7681 15.4325C10.7681 15.6475 10.9234 15.8975 11.3613 15.8185C14.7853 14.7545 17.2549 11.7455 17.2549 8.1985C17.2549 3.7625 13.392 0.166504 8.62637 0.166504Z" fill="#C4C4CC"/>
</g>
<defs>
<clipPath id="clip0_61385_196">
<rect width="17.2549" height="16" fill="white"/>
</clipPath>
</defs>
</svg>
