<svg width="48" height="48" viewBox="0 0 48 48" fill="none" xmlns="http://www.w3.org/2000/svg">
<rect width="48" height="48" fill="#323238"/>
<g clip-path="url(#clip0_61385_216)">
<path d="M22.724 36C21.617 36 20.324 35.994 19.048 35.921C17.1811 35.963 15.3729 35.267 14.016 33.984C12.7328 32.6276 12.0367 30.8197 12.079 28.953C12 27.51 12 26.051 12 24.64C12 24.4267 12 24.2133 12 24C12 23.7867 12 23.5733 12 23.36C12 21.949 12 20.49 12.079 19.048C12.037 17.1811 12.733 15.3729 14.016 14.016C15.3729 12.733 17.1811 12.037 19.048 12.079C20.328 12.006 21.617 12 22.724 12H25.277C26.384 12 27.677 12.006 28.954 12.079C30.8207 12.0367 32.6286 12.7328 33.985 14.016C35.268 15.3729 35.964 17.1811 35.922 19.048C36 20.49 36 21.949 36 23.361C36 23.5743 36 23.7877 36 24.001C36 24.2143 36 24.4273 36 24.64C36 26.051 36 27.51 35.921 28.954C35.9633 30.8207 35.2672 32.6286 33.984 33.985C32.6276 35.2682 30.8197 35.9643 28.953 35.922C27.672 35.995 26.383 36.001 25.276 36.001L22.724 36Z" fill="white"/>
<path d="M29.6061 18.7887C29.8425 18.9467 30.1206 19.031 30.405 19.031L30.406 19.032C30.7873 19.0315 31.1528 18.8797 31.4222 18.6099C31.6916 18.34 31.843 17.9743 31.843 17.593C31.843 17.3086 31.7586 17.0306 31.6006 16.7941C31.4426 16.5576 31.218 16.3733 30.9553 16.2645C30.6925 16.1557 30.4034 16.1272 30.1244 16.1827C29.8455 16.2381 29.5893 16.3751 29.3882 16.5762C29.1871 16.7773 29.0501 17.0335 28.9946 17.3125C28.9391 17.5914 28.9676 17.8806 29.0764 18.1433C29.1853 18.4061 29.3696 18.6307 29.6061 18.7887Z" fill="#323238"/>
<path fill-rule="evenodd" clip-rule="evenodd" d="M24.0003 30.1558C22.7828 30.1556 21.5927 29.7943 20.5805 29.1178C19.5682 28.4412 18.7794 27.4797 18.3136 26.3549C17.8478 25.23 17.726 23.9922 17.9637 22.7982C18.2013 21.6041 18.7877 20.5073 19.6487 19.6465C20.5097 18.7856 21.6066 18.1994 22.8007 17.962C23.9948 17.7245 25.2325 17.8465 26.3573 18.3124C27.4821 18.7784 28.4435 19.5674 29.1199 20.5798C29.7963 21.5921 30.1573 22.7823 30.1573 23.9998C30.1557 25.6322 29.5065 27.1973 28.3522 28.3517C27.1979 29.506 25.6327 30.1542 24.0003 30.1558ZM24.0002 20.0003C23.2091 20.0003 22.4357 20.2349 21.7779 20.6744C21.1201 21.1139 20.6075 21.7386 20.3047 22.4695C20.002 23.2004 19.9227 24.0047 20.0771 24.7806C20.2314 25.5566 20.6124 26.2693 21.1718 26.8287C21.7312 27.3881 22.4439 27.7691 23.2199 27.9234C23.9958 28.0778 24.8001 27.9985 25.531 27.6958C26.2619 27.393 26.8866 26.8804 27.3261 26.2226C27.7656 25.5648 28.0002 24.7914 28.0002 24.0003C28.0002 22.9394 27.5788 21.922 26.8286 21.1718C26.0785 20.4217 25.0611 20.0003 24.0002 20.0003Z" fill="#323238"/>
</g>
<defs>
<clipPath id="clip0_61385_216">
<rect width="24" height="24" fill="white" transform="translate(12 12)"/>
</clipPath>
</defs>
</svg>
