<svg width="48" height="48" viewBox="0 0 48 48" fill="none" xmlns="http://www.w3.org/2000/svg">
<rect width="48" height="48" fill="#323238"/>
<g clip-path="url(#clip0_61385_205)">
<path d="M36.6849 16.8452C35.7604 17.2358 34.7804 17.4934 33.777 17.6097C34.8352 17.0042 35.6271 16.0516 36.0049 14.9294C35.0116 15.4964 33.9235 15.8955 32.7883 16.1091C32.0949 15.3976 31.1931 14.9024 30.2008 14.688C29.2085 14.4737 28.1716 14.5503 27.2254 14.9077C26.2793 15.2651 25.4678 15.8867 24.8969 16.6916C24.3259 17.4964 24.022 18.447 24.0249 19.4194C24.0229 19.7915 24.0668 20.1625 24.1557 20.5248C22.1397 20.4293 20.1674 19.9285 18.3677 19.055C16.568 18.1815 14.9813 16.955 13.7112 15.4555C13.0632 16.523 12.8653 17.7864 13.158 18.9885C13.4506 20.1905 14.2117 21.2407 15.2861 21.9251C14.4786 21.906 13.6883 21.6983 12.9842 21.3199V21.3801C12.9836 22.4994 13.3886 23.5844 14.1302 24.4506C14.8718 25.3169 15.9044 25.911 17.0524 26.132C16.6174 26.2448 16.1688 26.3019 15.7181 26.3019C15.3986 26.3025 15.0798 26.2725 14.7665 26.2122C15.0901 27.1749 15.7205 28.0168 16.5695 28.6201C17.4184 29.2234 18.4435 29.5579 19.5012 29.5768C17.7066 30.9251 15.489 31.6561 13.2064 31.6519C12.8025 31.6515 12.399 31.6282 11.998 31.5823C14.3046 33.0169 16.9986 33.7778 19.7505 33.7719C21.6488 33.7846 23.5308 33.4366 25.2872 32.7479C27.0435 32.0593 28.6391 31.0439 29.9812 29.7607C31.3233 28.4775 32.3851 26.9521 33.105 25.2732C33.8248 23.5942 34.1884 21.7953 34.1744 19.9809C34.1744 19.7709 34.1744 19.561 34.1584 19.3557C35.1498 18.6689 36.0054 17.8188 36.6849 16.8452V16.8452Z" fill="white"/>
</g>
<defs>
<clipPath id="clip0_61385_205">
<rect width="24.6857" height="19.2" fill="white" transform="translate(12 14.571)"/>
</clipPath>
</defs>
</svg>
