<svg width="48" height="48" viewBox="0 0 48 48" fill="none" xmlns="http://www.w3.org/2000/svg">
<rect width="48" height="48" fill="#323238"/>
<g clip-path="url(#clip0_61385_212)">
<path d="M36.5252 18.8107C36.5697 17.7823 36.219 16.7776 35.5499 16.0171C34.8808 15.2565 33.9481 14.8022 32.9563 14.7539C30.285 14.6241 27.5607 14.571 24.7783 14.571H23.9108C21.1336 14.571 18.4041 14.6213 15.7328 14.7539C14.7408 14.8055 13.8089 15.2623 13.1409 16.0245C12.4729 16.7866 12.1232 17.792 12.1683 18.8208C12.0484 20.6042 11.9946 22.3803 11.9999 24.161C12.0052 25.9417 12.0484 27.7205 12.1639 29.5058C12.1169 30.5361 12.4655 31.5437 13.1333 32.3082C13.8012 33.0726 14.734 33.5316 15.7275 33.5846C18.5337 33.7199 21.4131 33.7793 24.3401 33.7747C27.2719 33.7845 30.1428 33.7211 32.9528 33.5846C33.9464 33.5325 34.8796 33.0745 35.5482 32.3108C36.2169 31.5471 36.5666 30.5398 36.5208 29.5095C36.6363 27.7242 36.6892 25.9444 36.6848 24.1601C36.6942 22.3769 36.641 20.5938 36.5252 18.8107ZM21.9782 29.0652V19.2412L28.9705 24.1509L21.9782 29.0652Z" fill="white"/>
</g>
<defs>
<clipPath id="clip0_61385_212">
<rect width="24.6857" height="19.2" fill="white" transform="translate(12 14.571)"/>
</clipPath>
</defs>
</svg>
